<svg width="128" height="128" viewBox="0 0 128 128" fill="none" xmlns="http://www.w3.org/2000/svg">
<g clip-path="url(#clip0_2233_3007)">
<rect width="128" height="128" rx="64" fill="#F8F8F8"/>
<path d="M100 33.8437C100 37.6235 96.9358 40.6875 93.1562 40.6875C89.3767 40.6875 86.3125 37.6235 86.3125 33.8437C86.3125 30.064 89.3767 27 93.1562 27C96.9358 27 100 30.064 100 33.8437Z" fill="black"/>
<path d="M100 63.5C100 67.2796 96.9358 70.3437 93.1562 70.3437C89.3767 70.3437 86.3125 67.2796 86.3125 63.5C86.3125 59.7204 89.3767 56.6562 93.1562 56.6562C96.9358 56.6562 100 59.7204 100 63.5Z" fill="black"/>
<path d="M40.6875 63.5C40.6875 67.2796 37.6235 70.3437 33.8437 70.3437C30.064 70.3437 27 67.2796 27 63.5C27 59.7204 30.064 56.6562 33.8437 56.6562C37.6235 56.6562 40.6875 59.7204 40.6875 63.5Z" fill="black"/>
<path d="M40.6875 93.1562C40.6875 96.9358 37.6235 100 33.8437 100C30.064 100 27 96.9358 27 93.1562C27 89.3767 30.064 86.3125 33.8437 86.3125C37.6235 86.3125 40.6875 89.3767 40.6875 93.1562Z" fill="black"/>
<path d="M70.3437 33.8437C70.3437 37.6235 67.2796 40.6875 63.5 40.6875C59.7204 40.6875 56.6562 37.6235 56.6562 33.8437C56.6562 30.064 59.7204 27 63.5 27C67.2796 27 70.3437 30.064 70.3437 33.8437Z" fill="black"/>
<path d="M70.3437 93.1562C70.3437 96.9358 67.2796 100 63.5 100C59.7204 100 56.6562 96.9358 56.6562 93.1562C56.6562 89.3767 59.7204 86.3125 63.5 86.3125C67.2796 86.3125 70.3437 89.3767 70.3437 93.1562Z" fill="black"/>
<path d="M63.5 52.0937C57.2006 52.0937 52.0937 57.2006 52.0937 63.5C52.0937 69.7994 57.2006 74.9062 63.5 74.9062C69.7994 74.9062 74.9062 69.7994 74.9062 63.5C74.9062 57.2006 69.7994 52.0937 63.5 52.0937Z" fill="black"/>
</g>
<defs>
<clipPath id="clip0_2233_3007">
<rect width="128" height="128" rx="64" fill="white"/>
</clipPath>
</defs>
</svg>
