<svg width="128" height="128" viewBox="0 0 128 128" fill="none" xmlns="http://www.w3.org/2000/svg">
<g clip-path="url(#clip0_2233_2964)">
<path d="M96.9416 118.886L82.5575 98.0276L75.9075 88.5174C71.2873 81.91 61.0621 84.7733 60.4289 92.8518C60.3861 93.3967 60.3941 93.9447 60.453 94.4882L64.0803 128C66.9154 127.939 69.7797 127.683 72.6589 127.221L74.9788 126.848C82.9666 125.564 90.3632 122.805 96.9416 118.886Z" fill="#F5F5F5"/>
<path d="M102.94 114.823L97.0521 106.146C92.7659 99.8296 93.3645 91.3396 98.4928 85.708L127.26 54.1175C130.902 78.1464 120.828 101.131 102.94 114.823Z" fill="#F5F5F5"/>
<path d="M56.4031 127.685L53.1068 97.6796C52.8418 95.2659 52.8038 92.8323 52.9936 90.4114L54.8314 66.9678C54.9208 65.8284 54.7502 64.6834 54.3328 63.6219C51.6286 56.7434 41.7648 57.6749 40.3558 64.9421L29.9588 118.57C37.873 123.512 46.8856 126.696 56.4031 127.685Z" fill="#F5F5F5"/>
<path d="M23.4044 113.871L38.0767 42.1168C39.2731 36.266 38.2045 30.1723 35.0927 25.1007L26.9363 11.8072C7.81353 25.3473 -3.10649 49.2095 0.781136 74.1646C3.31583 90.435 11.6965 104.29 23.4044 113.871Z" fill="#F5F5F5"/>
<path d="M33.2857 7.86056L46.798 30.1008C47.1635 30.7023 47.483 31.3314 47.7539 31.9827L48.0851 32.7782C52.3098 42.9323 66.1213 43.8641 71.6312 34.3666C73.606 30.9627 74.003 26.8476 72.7161 23.1193L64.7369 0C61.6355 0.0251291 58.4972 0.284164 55.341 0.791303L53.0211 1.1641C45.9226 2.30475 39.2911 4.6111 33.2857 7.86056Z" fill="#F5F5F5"/>
<path d="M72.9529 0.483391L78.8212 17.4861C81.5252 25.3202 80.6912 33.9665 76.5417 41.1188L70.3939 51.7156C66.8541 57.817 67.0867 65.4427 70.9916 71.3098C77.4728 81.0477 91.1704 82.1745 99.11 73.6229L125.322 45.3914C118.115 21.0125 97.296 3.56096 72.9529 0.483391Z" fill="#F5F5F5"/>
</g>
<defs>
<clipPath id="clip0_2233_2964">
<rect width="128" height="128" fill="white"/>
</clipPath>
</defs>
</svg>
